<?xml version="1.0" encoding="UTF-8"?>
<svg id="Logo" xmlns="http://www.w3.org/2000/svg" version="1.1" viewBox="0 0 1062 1288">
  <!-- Generator: Adobe Illustrator 29.5.1, SVG Export Plug-In . SVG Version: 2.1.0 Build 141)  -->
  <defs>
    <style>
      .st0 {
        fill: #fff;
      }

      .st1 {
        fill: none;
      }

      .st2 {
        fill: #8dc126;
      }
    </style>
  </defs>
  <rect class="st1" width="1062" height="1288"/>
  <path id="Surestead" class="st0" d="M234,1096.2c-8.7,0-16.7-1.9-23.9-5.6-7.3-3.7-13.3-9.7-18.1-18.1l19-12.1c2.8,5.6,6.4,9.8,10.7,12.3,4.3,2.6,8.8,3.8,13.6,3.8s9.1-1.1,12.1-3.5c2.9-2.3,4.4-5.3,4.4-9.1s-1.2-6.6-3.5-8.8c-2.3-2.2-5.4-4-9.2-5.3-3.8-1.4-8-2.6-12.5-3.8-8.5-2.2-15.2-5.8-20.2-10.9s-7.5-11.7-7.5-20,1.6-12.3,4.9-17.3c3.2-4.9,7.8-8.7,13.6-11.4s12.6-4.1,20.3-4.1,15.7,1.8,21.5,5.3c5.7,3.6,10.7,8.6,14.7,15.1l-18.8,11.6c-2.6-4.3-5.3-7.4-8.2-9.4-2.8-2-6.3-3-10.4-3s-8,1.1-10.9,3.3-4.3,5.1-4.3,8.8,1.7,7,5.1,8.9c3.4,1.8,7.5,3.5,12.3,4.9,3.2,1,6.9,2.3,10.9,3.7,4,1.4,7.9,3.3,11.7,5.8,3.8,2.5,6.8,5.7,9.3,9.8,2.4,4.1,3.6,9.3,3.6,15.5s-1.6,12.4-4.9,17.4c-3.2,5-7.8,8.9-13.8,11.8-5.9,3-13.1,4.4-21.5,4.4ZM309.5,1096c-5.9,0-11.1-1.4-15.8-4.1-4.7-2.7-8.4-6.6-11.1-11.7s-4.1-11-4.1-17.8v-49.9h21.2v44.7c0,7,1.4,12.1,4.2,15.4,2.8,3.2,6.8,4.9,12.1,4.9s8.4-1.6,11.8-4.9c3.4-3.2,5.1-8.4,5.1-15.4v-44.7h21.1v81.6h-20.5v-12.2c-2,4.7-4.9,8.2-8.7,10.6-3.9,2.4-9,3.5-15.3,3.5ZM363.4,1094.2v-81.6h20.6v15.5c1.4-5.9,4.1-10.3,8.3-13.4,4.2-3.1,9.8-4.4,16.9-4v19.9h-3c-6.1,0-11.2,1.9-15.4,5.8-4.2,3.9-6.3,9.2-6.3,16v41.7h-21.1ZM449.1,1096.2c-8.4,0-15.7-1.9-22.1-5.8s-11.3-9-14.8-15.4-5.3-13.6-5.3-21.4,1.8-15,5.5-21.6c3.7-6.5,8.7-11.7,15-15.6,6.3-3.9,13.6-5.8,21.7-5.8s15.3,1.9,21.6,5.8c6.2,3.9,11.1,9.1,14.6,15.6s5.3,13.7,5.3,21.6-.1,2.4-.2,3.6c-.1,1.3-.3,2.6-.5,3.9h-61c1.1,4.8,3.5,8.7,7,11.8,3.5,3,7.9,4.5,13.3,4.5s8.6-1,12-3.1,6-4.7,7.9-7.8l16.5,12.4c-3.2,5.1-8.1,9.3-14.6,12.5-6.6,3.2-13.9,4.8-21.9,4.8ZM448.7,1028.8c-5,0-9.3,1.5-12.9,4.5s-5.9,7-7.1,11.9h40.3c-1.2-4.5-3.5-8.4-7.1-11.6-3.5-3.2-7.9-4.8-13.2-4.8ZM521.4,1096.2c-13.7,0-25-4.8-33.9-14.3l14.3-13c6,6.7,12.3,10,19.1,10s6.5-.8,8.4-2.4,2.9-3.6,2.9-6-.3-2.7-1-3.8c-.7-1-2.1-2-4.2-3-2.1-.9-5.4-1.9-9.6-2.8-7.3-1.8-12.8-4-16.3-6.6-3.6-2.6-5.9-5.5-7.1-8.8-1.2-3.2-1.7-6.6-1.7-10,0-7.1,2.7-13,8.1-17.8s12.8-7.1,22.3-7.1,12.2,1,16.9,3,9.1,5.7,13.3,11.1l-15.4,11.8c-2-3.1-4.2-5.4-6.7-6.7-2.5-1.4-5-2-7.8-2s-5.4.6-7.3,1.7c-1.9,1.2-2.9,3-2.9,5.5s.6,2.7,1.9,4c1.3,1.3,4.3,2.6,9.1,3.8,7.9,2,14,4.3,18.2,7s7.1,5.7,8.6,9c1.6,3.3,2.4,7.1,2.4,11.1s-1.4,9.5-4.2,13.5-6.5,7.1-11.3,9.4c-4.7,2.2-10.1,3.4-16.1,3.4ZM591.5,1094.2c-8.1,0-14.2-2-18.5-6s-6.4-10.4-6.4-19.3v-38.3h-11.4v-18h11.4v-16.5l21.2-2.2v18.7h17.3v18h-17.3v37.2c0,5,2.2,7.5,6.6,7.5h8.8v18.8h-11.7ZM645.7,1096.2c-8.4,0-15.7-1.9-22.1-5.8-6.4-3.9-11.3-9-14.8-15.4s-5.3-13.6-5.3-21.4,1.8-15,5.5-21.6c3.7-6.5,8.7-11.7,15-15.6,6.3-3.9,13.6-5.8,21.7-5.8s15.3,1.9,21.6,5.8c6.2,3.9,11.1,9.1,14.6,15.6s5.3,13.7,5.3,21.6,0,2.4-.2,3.6c0,1.3-.3,2.6-.5,3.9h-61c1.1,4.8,3.5,8.7,7,11.8,3.5,3,7.9,4.5,13.3,4.5s8.6-1,12-3.1,6-4.7,7.9-7.8l16.5,12.4c-3.2,5.1-8.1,9.3-14.6,12.5-6.6,3.2-13.8,4.8-21.9,4.8ZM645.4,1028.8c-5,0-9.3,1.5-12.9,4.5-3.6,3-5.9,7-7.1,11.9h40.3c-1.2-4.5-3.5-8.4-7.1-11.6-3.5-3.2-8-4.8-13.2-4.8ZM731.2,1096.2c-7.4,0-14.2-1.9-20.3-5.7-6.1-3.8-11-8.9-14.6-15.4-3.6-6.4-5.4-13.6-5.4-21.4s1-11.4,3.1-16.5c2.1-5.2,5-9.7,8.6-13.6,3.7-3.9,7.9-7,12.8-9.3,4.9-2.2,10.1-3.4,15.8-3.4s12.7,1.3,16.6,4c4,2.7,7.1,6.2,9.3,10.6v-12.9h21v81.6h-20.5v-13.3c-2.2,4.6-5.3,8.3-9.3,11.1-4.1,2.8-9.8,4.2-17.1,4.2ZM734.7,1077.1c4.7,0,8.8-1.1,12.2-3.2s6-5,7.9-8.5c1.9-3.6,2.8-7.4,2.8-11.6s-.9-8.2-2.8-11.8c-1.9-3.6-4.5-6.4-7.9-8.6s-7.5-3.3-12.2-3.3-8.4,1.1-11.8,3.2c-3.4,2.1-6,5-7.9,8.5-1.9,3.6-2.8,7.5-2.8,11.8s.9,7.9,2.8,11.5,4.5,6.5,7.9,8.7c3.3,2.2,7.3,3.3,11.8,3.3ZM823.1,1096.2c-7.4,0-14.2-1.9-20.3-5.7-6.1-3.8-11-8.9-14.6-15.4-3.6-6.4-5.4-13.6-5.4-21.4s1-11.4,3.1-16.5c2.1-5.2,5-9.7,8.6-13.6,3.7-3.9,7.9-7,12.8-9.3,4.9-2.2,10.1-3.4,15.8-3.4s12.5,1.3,16.5,3.9c4,2.6,7.1,6.1,9.3,10.4v-45.5h21.1v114.5h-20.5v-13.3c-2.2,4.6-5.3,8.3-9.3,11.1-4.1,2.8-9.8,4.2-17.1,4.2ZM826.6,1077.1c4.7,0,8.8-1.1,12.2-3.2s6-5,7.9-8.5c1.9-3.6,2.8-7.4,2.8-11.6s-.9-8.2-2.8-11.8c-1.9-3.6-4.5-6.4-7.9-8.6s-7.5-3.3-12.2-3.3-8.4,1.1-11.8,3.2c-3.4,2.1-6,5-7.9,8.5-1.9,3.6-2.8,7.5-2.8,11.8s.9,7.9,2.8,11.5c1.9,3.6,4.5,6.5,7.9,8.7,3.3,2.2,7.3,3.3,11.8,3.3Z"/>
  <path id="House" class="st2" d="M512.5,611.9h-81.9v-81.9h81.9v81.9ZM637.8,530h-81.9v81.9h81.9v-81.9ZM512.5,649.6h-81.9v81.9h81.9v-81.9ZM637.8,649.6h-81.9v81.9h81.9v-81.9ZM869.9,451.8l-335.7-260L198.5,451.8v279.7h95.5v-232.9l240.2-186,240.2,186v325.6H198.4v95.5h671.5v-467.9Z"/>
</svg>