<?xml version="1.0" encoding="utf-8"?>
<!-- Generator: Adobe Illustrator 26.4.1, SVG Export Plug-In . SVG Version: 6.00 Build 0)  -->
<svg version="1.1" id="Layer_1" xmlns="http://www.w3.org/2000/svg" xmlns:xlink="http://www.w3.org/1999/xlink" x="0px" y="0px"
	 viewBox="0 0 1049.7 362.6" style="enable-background:new 0 0 1049.7 362.6;" xml:space="preserve">
<style type="text/css">
	.st0{fill:none;}
	.st1{fill:#FFFFFF;}
	.st2{fill:#8DC126;}
</style>
<g id="Clear_space">
	<g>
	</g>
	<g>
	</g>
	<g>
	</g>
	<g>
	</g>
</g>
<rect x="-0.1" class="st0" width="1049.7" height="362.6"/>
<path id="Property_Services" class="st1" d="M78.6,283.3c0,4.3-1.5,7.8-4.5,10.3c-3,2.6-7.1,3.8-12.3,3.8h-5.2v18.2h-10v-45.9h15.2
	c5.2,0,9.3,1.2,12.3,3.6C77.1,275.7,78.6,279,78.6,283.3z M68.6,283.5c0-1.9-0.6-3.2-1.7-4c-1.1-0.8-2.8-1.2-5.1-1.2h-5.2V289h5.2
	c2.3,0,4-0.5,5.1-1.4C68,286.7,68.6,285.3,68.6,283.5z M129,315.7L116.2,294v21.7h-10v-45.9h16.5c3.1,0,5.8,0.6,8.2,1.7
	c2.4,1.1,4.3,2.8,5.6,4.9c1.3,2.1,2,4.5,2,7.1c0,3.2-0.9,6-2.7,8.3c-1.8,2.3-4.3,3.9-7.6,4.7l12.2,19.2H129z M128.3,283.5
	c0-1.5-0.5-2.8-1.6-3.8c-1.1-1-2.4-1.5-4.1-1.5h-6.4v11.1h6.4c1.8,0,3.2-0.5,4.2-1.6C127.8,286.7,128.3,285.3,128.3,283.5z
	 M211.7,292.5c0,4.4-1,8.5-3,12.2s-4.8,6.6-8.5,8.6c-3.6,2.1-7.7,3.1-12.2,3.1c-4.5,0-8.5-1-12.1-3.1s-6.4-4.9-8.4-8.6
	s-3.1-7.8-3.1-12.3c0-4.4,1-8.4,3-12c2-3.6,4.8-6.4,8.4-8.5c3.6-2,7.7-3,12.3-3c4.6,0,8.7,1,12.3,3c3.6,2,6.4,4.8,8.4,8.4
	S211.7,288,211.7,292.5z M201.3,292.5c0-2.7-0.6-5.2-1.7-7.5c-1.1-2.3-2.7-4-4.7-5.3c-2-1.3-4.3-1.9-6.8-1.9c-2.4,0-4.7,0.7-6.7,2
	s-3.7,3.1-4.8,5.4c-1.2,2.3-1.8,4.8-1.8,7.4c0,2.7,0.6,5.2,1.8,7.6c1.2,2.3,2.8,4.2,4.8,5.5s4.2,2,6.6,2c2.5,0,4.8-0.7,6.8-2
	c2-1.3,3.6-3.2,4.8-5.5C200.7,297.8,201.3,295.2,201.3,292.5z M272.2,283.3c0,4.3-1.5,7.8-4.5,10.3c-3,2.6-7.1,3.8-12.3,3.8h-5.2
	v18.2h-10v-45.9h15.2c5.2,0,9.3,1.2,12.3,3.6C270.7,275.7,272.2,279,272.2,283.3z M262.1,283.5c0-1.9-0.6-3.2-1.7-4
	s-2.8-1.2-5.1-1.2h-5.2V289h5.2c2.3,0,4-0.5,5.1-1.4S262.1,285.3,262.1,283.5z M299.7,315.7v-45.9h26.7v8.5h-16.7V289h15.5v8.5
	h-15.5v9.7h17.6v8.5H299.7z M379.7,315.7L366.9,294v21.7h-10v-45.9h16.5c3.1,0,5.8,0.6,8.2,1.7c2.4,1.1,4.3,2.8,5.6,4.9
	c1.3,2.1,2,4.5,2,7.1c0,3.2-0.9,6-2.7,8.3c-1.8,2.3-4.3,3.9-7.6,4.7l12.2,19.2H379.7z M379.1,283.5c0-1.5-0.5-2.8-1.6-3.8
	s-2.4-1.5-4.1-1.5h-6.4v11.1h6.4c1.8,0,3.2-0.5,4.2-1.6C378.6,286.7,379.1,285.3,379.1,283.5z M434.2,278.2v37.5h-10v-37.5H415v-8.5
	H443v8.5H434.2z M493.1,297.1v18.6h-10v-18.6l-15.6-27.3h11.4l8.4,15.9l0.6,1.6l0.3,0.9l0.2-0.9l0.6-1.6l8.4-15.9h11.5L493.1,297.1z
	 M600.4,302.7c0,4.3-1.4,7.7-4.3,10.1c-2.9,2.4-6.8,3.7-11.8,3.7c-2.8,0-5.5-0.5-8-1.4c-2.5-0.9-5-2.4-7.5-4.3l5.2-7
	c1.6,1.2,3.3,2.2,5.1,2.9s3.6,1,5.2,1c2,0,3.5-0.3,4.4-1c0.9-0.6,1.4-1.8,1.4-3.4c0-0.9-0.3-1.7-0.9-2.4s-1.4-1.4-2.6-2.1
	c-1.1-0.6-3.3-1.6-6.5-2.8c-1.6-0.6-3.3-1.5-5.1-2.8c-1.9-1.3-3.2-2.8-4.1-4.6c-0.9-1.8-1.3-3.9-1.3-6.3c0-2.7,0.7-5.1,2-7.1
	c1.4-2,3.3-3.5,5.8-4.6s5.3-1.6,8.5-1.6c2.5,0,4.9,0.4,7.3,1.1c2.4,0.7,4.4,1.7,5.9,2.9l-4.5,7.5c-1.2-0.9-2.6-1.5-4.1-2
	c-1.6-0.5-3.1-0.7-4.6-0.7c-1.3,0-2.4,0.2-3.4,0.6c-0.9,0.4-1.7,1-2.2,1.7c-0.5,0.7-0.8,1.4-0.8,2.2c0,1.2,0.6,2.3,1.7,3.3
	c1.1,0.9,3,1.9,5.5,2.8c3.6,1.3,6.2,2.6,8,3.8c1.7,1.2,3,2.7,3.9,4.4C600,298.3,600.4,300.3,600.4,302.7z M629.7,315.7v-45.9h26.7
	v8.5h-16.7V289h15.5v8.5h-15.5v9.7h17.6v8.5H629.7z M709.7,315.7L696.9,294v21.7h-10v-45.9h16.5c3.1,0,5.8,0.6,8.2,1.7
	c2.4,1.1,4.3,2.8,5.6,4.9c1.3,2.1,2,4.5,2,7.1c0,3.2-0.9,6-2.7,8.3c-1.8,2.3-4.3,3.9-7.6,4.7l12.2,19.2H709.7z M709.1,283.5
	c0-1.5-0.5-2.8-1.6-3.8s-2.4-1.5-4.1-1.5h-6.4v11.1h6.4c1.8,0,3.2-0.5,4.2-1.6C708.6,286.7,709.1,285.3,709.1,283.5z M767.6,315.7
	H758l-15-45.9h10.3l8.9,29.3l0.7,2.6l9.6-31.9h10.1L767.6,315.7z M809.5,315.7v-45.9h10v45.9H809.5z M888.8,309
	c-2.4,2.6-5,4.4-7.8,5.6c-2.8,1.2-6,1.8-9.6,1.8c-4.7,0-8.8-1-12.3-3c-3.6-2-6.3-4.8-8.2-8.4c-1.9-3.7-2.9-7.9-2.9-12.6
	c0-4.3,1-8.3,3-11.9c2-3.6,4.8-6.4,8.4-8.5c3.6-2.1,7.6-3.1,11.9-3.1c3.5,0,6.5,0.5,9.2,1.6c2.6,1.1,5.1,2.8,7.4,5.2l-5.7,6.6
	c-3-3.1-6.7-4.6-10.9-4.6c-3.8,0-6.9,1.4-9.3,4.1c-2.4,2.7-3.6,6.3-3.6,10.6c0,4.8,1.1,8.5,3.4,11.2c2.3,2.7,5.5,4,9.7,4
	c1.5,0,2.9-0.2,4.1-0.5c1.2-0.3,2.4-0.8,3.5-1.5c1.1-0.7,2.4-1.7,4-3.2L888.8,309z M916.7,315.7v-45.9h26.7v8.5h-16.7V289h15.5v8.5
	h-15.5v9.7h17.6v8.5H916.7z M1003.1,302.7c0,4.3-1.4,7.7-4.3,10.1c-2.9,2.4-6.8,3.7-11.8,3.7c-2.8,0-5.5-0.5-8-1.4
	c-2.5-0.9-5-2.4-7.5-4.3l5.2-7c1.6,1.2,3.3,2.2,5.1,2.9s3.6,1,5.2,1c2,0,3.5-0.3,4.4-1c0.9-0.6,1.4-1.8,1.4-3.4
	c0-0.9-0.3-1.7-0.9-2.4s-1.4-1.4-2.6-2.1c-1.1-0.6-3.3-1.6-6.5-2.8c-1.6-0.6-3.3-1.5-5.1-2.8c-1.9-1.3-3.2-2.8-4.1-4.6
	c-0.9-1.8-1.3-3.9-1.3-6.3c0-2.7,0.7-5.1,2-7.1c1.4-2,3.3-3.5,5.8-4.6s5.3-1.6,8.5-1.6c2.5,0,4.9,0.4,7.3,1.1
	c2.4,0.7,4.4,1.7,5.9,2.9l-4.5,7.5c-1.2-0.9-2.6-1.5-4.1-2c-1.6-0.5-3.1-0.7-4.6-0.7c-1.3,0-2.4,0.2-3.4,0.6c-0.9,0.4-1.7,1-2.2,1.7
	c-0.5,0.7-0.8,1.4-0.8,2.2c0,1.2,0.6,2.3,1.7,3.3c1.1,0.9,3,1.9,5.5,2.8c3.6,1.3,6.2,2.6,8,3.8c1.7,1.2,3,2.7,3.9,4.4
	C1002.7,298.3,1003.1,300.3,1003.1,302.7z"/>
<path id="House" class="st2" d="M915.6,147.9h-19.9V128h19.9V147.9z M946.1,128h-19.9v19.9h19.9V128z M915.6,157.1h-19.9V177h19.9
	V157.1z M946.1,157.1h-19.9V177h19.9V157.1z M1002.7,108.9l-81.8-63.4l-81.8,63.4V177h23.5v-56.6l58.3-45.2l58.3,45.2v79H46.9v23.5
	h955.9V108.9z"/>
<path id="Surestead" class="st1" d="M94.5,179.6c-9.9,0-19-2.1-27.2-6.3c-8.3-4.2-15.2-11.1-20.6-20.6l21.6-13.8
	c3.2,6.4,7.3,11.1,12.1,14c4.9,2.9,10.1,4.4,15.5,4.4c5.8,0,10.4-1.3,13.8-3.9c3.3-2.6,5-6.1,5-10.4c0-4.2-1.3-7.5-3.9-10
	c-2.6-2.5-6.1-4.5-10.5-6.1c-4.3-1.5-9.1-3-14.2-4.3c-9.6-2.5-17.3-6.6-23-12.4c-5.7-5.8-8.6-13.4-8.6-22.8c0-7.5,1.8-14.1,5.5-19.7
	c3.7-5.6,8.8-9.9,15.5-13c6.6-3.1,14.3-4.6,23.1-4.6c9.8,0,17.9,2,24.5,6.1c6.5,4.1,12.1,9.8,16.8,17.2l-21.4,13.2
	c-3-4.9-6.1-8.5-9.3-10.7c-3.2-2.3-7.1-3.4-11.8-3.4c-5,0-9.1,1.3-12.4,3.8c-3.3,2.5-4.9,5.8-4.9,10c0,4.6,1.9,8,5.8,10.1
	c3.9,2.1,8.5,4,14,5.6c3.7,1.2,7.8,2.6,12.4,4.2c4.6,1.6,9,3.8,13.3,6.6c4.3,2.8,7.8,6.5,10.5,11.2c2.7,4.6,4.1,10.5,4.1,17.7
	c0,7.5-1.8,14.1-5.5,19.8c-3.7,5.7-8.9,10.2-15.7,13.4C112.1,178,104,179.6,94.5,179.6z M180.4,179.4c-6.7,0-12.7-1.5-18-4.6
	s-9.6-7.5-12.7-13.3c-3.1-5.8-4.6-12.5-4.6-20.3V84.4h24.1v50.9c0,8,1.6,13.8,4.8,17.5c3.2,3.7,7.8,5.5,13.8,5.5
	c5.1,0,9.6-1.8,13.5-5.5c3.9-3.7,5.8-9.5,5.8-17.5V84.4h24.1v92.9h-23.4v-13.9c-2.3,5.4-5.6,9.4-9.9,12.1
	C193.4,178.1,187.6,179.4,180.4,179.4z M241.8,177.3V84.4h23.4v17.7c1.5-6.7,4.7-11.8,9.5-15.3c4.8-3.5,11.2-5,19.3-4.6v22.7h-3.4
	c-6.9,0-12.7,2.2-17.5,6.6c-4.8,4.4-7.1,10.5-7.1,18.2v47.5H241.8z M339.4,179.6c-9.5,0-17.9-2.2-25.2-6.6
	c-7.3-4.4-12.9-10.3-16.9-17.6c-4-7.3-6-15.5-6-24.4c0-8.9,2.1-17.1,6.3-24.6c4.2-7.4,9.9-13.4,17.1-17.8c7.2-4.4,15.5-6.6,24.7-6.6
	c9.3,0,17.5,2.2,24.6,6.6c7.1,4.4,12.6,10.3,16.6,17.8c4,7.4,6,15.6,6,24.6c0,1.3-0.1,2.7-0.2,4.1c-0.1,1.4-0.3,2.9-0.5,4.5h-69.5
	c1.3,5.5,4,9.9,8,13.4c4,3.5,9,5.2,15.1,5.2c5.2,0,9.8-1.2,13.7-3.6c3.9-2.4,6.9-5.4,9-8.9l18.8,14.1c-3.7,5.8-9.2,10.6-16.6,14.3
	C356.8,177.7,348.5,179.6,339.4,179.6z M339,102.8c-5.7,0-10.6,1.7-14.6,5.2c-4,3.5-6.7,8-8,13.6h45.9c-1.3-5.1-4-9.5-8.1-13.2
	C350,104.6,345,102.8,339,102.8z M421.7,179.6c-15.6,0-28.5-5.4-38.6-16.3l16.3-14.8c6.8,7.6,14.1,11.4,21.8,11.4
	c4.2,0,7.4-0.9,9.6-2.8c2.2-1.8,3.3-4.1,3.3-6.9c0-1.7-0.4-3.1-1.2-4.3c-0.8-1.2-2.4-2.3-4.8-3.4c-2.4-1.1-6.1-2.1-11-3.2
	c-8.3-2-14.5-4.5-18.6-7.5c-4-3-6.7-6.3-8-10c-1.3-3.7-2-7.5-2-11.4c0-8.1,3.1-14.9,9.2-20.3c6.1-5.4,14.6-8.1,25.5-8.1
	c7.5,0,13.9,1.1,19.3,3.4c5.4,2.3,10.4,6.5,15.2,12.7l-17.5,13.4c-2.3-3.6-4.8-6.1-7.6-7.7c-2.8-1.5-5.7-2.3-8.8-2.3
	c-3.3,0-6.1,0.7-8.3,2c-2.2,1.3-3.3,3.4-3.3,6.3c0,1.5,0.7,3.1,2.1,4.6c1.4,1.5,4.9,2.9,10.4,4.4c9,2.3,16,4.9,20.7,7.9
	c4.8,3,8,6.5,9.8,10.3c1.8,3.8,2.7,8,2.7,12.7c0,5.7-1.6,10.8-4.7,15.4c-3.2,4.5-7.4,8.1-12.9,10.7
	C434.8,178.3,428.6,179.6,421.7,179.6z M501.6,177.3c-9.2,0-16.2-2.3-21.1-6.8c-4.9-4.5-7.3-11.8-7.3-22v-43.6h-13V84.4h13V65.6
	l24.1-2.5v21.3h19.7v20.5h-19.7v42.3c0,5.7,2.5,8.6,7.5,8.6h10v21.4H501.6z M563.4,179.6c-9.5,0-17.9-2.2-25.2-6.6
	c-7.3-4.4-12.9-10.3-16.9-17.6c-4-7.3-6-15.5-6-24.4c0-8.9,2.1-17.1,6.3-24.6c4.2-7.4,9.9-13.4,17.1-17.8c7.2-4.4,15.5-6.6,24.7-6.6
	c9.3,0,17.5,2.2,24.6,6.6c7.1,4.4,12.6,10.3,16.6,17.8c4,7.4,6,15.6,6,24.6c0,1.3-0.1,2.7-0.2,4.1c-0.1,1.4-0.3,2.9-0.5,4.5h-69.5
	c1.3,5.5,4,9.9,8,13.4c4,3.5,9,5.2,15.1,5.2c5.2,0,9.8-1.2,13.7-3.6c3.9-2.4,6.9-5.4,9-8.9l18.8,14.1c-3.7,5.8-9.2,10.6-16.6,14.3
	C580.8,177.7,572.6,179.6,563.4,179.6z M563,102.8c-5.7,0-10.6,1.7-14.6,5.2c-4,3.5-6.7,8-8,13.6h45.9c-1.3-5.1-4-9.5-8.1-13.2
	C574,104.6,569,102.8,563,102.8z M660.7,179.6c-8.5,0-16.2-2.2-23.1-6.5c-7-4.3-12.5-10.2-16.6-17.5c-4.1-7.3-6.2-15.5-6.2-24.4
	c0-6.7,1.2-13,3.6-18.8c2.4-5.9,5.7-11.1,9.8-15.5c4.2-4.5,9-8,14.6-10.5c5.5-2.6,11.5-3.8,18-3.8c8.1,0,14.4,1.5,18.9,4.6
	c4.5,3,8,7.1,10.5,12.1V84.4h23.9v92.9h-23.4v-15.2c-2.5,5.2-6,9.5-10.6,12.7C675.5,178,669.1,179.6,660.7,179.6z M664.7,157.8
	c5.4,0,10-1.2,13.8-3.7c3.9-2.4,6.9-5.7,9-9.7c2.1-4,3.2-8.5,3.2-13.2c0-4.9-1.1-9.3-3.2-13.4c-2.1-4-5.2-7.3-9-9.8
	c-3.9-2.5-8.5-3.8-13.8-3.8c-5.1,0-9.6,1.2-13.5,3.7c-3.9,2.4-6.9,5.7-9,9.7c-2.1,4.1-3.2,8.5-3.2,13.4c0,4.6,1.1,9,3.2,13.1
	c2.1,4.1,5.2,7.4,9,9.9C655.1,156.5,659.6,157.8,664.7,157.8z M765.4,179.6c-8.5,0-16.2-2.2-23.1-6.5c-7-4.3-12.5-10.2-16.6-17.5
	c-4.1-7.3-6.2-15.5-6.2-24.4c0-6.7,1.2-13,3.6-18.8c2.4-5.9,5.7-11.1,9.8-15.5c4.2-4.5,9-8,14.6-10.5c5.5-2.6,11.5-3.8,18-3.8
	c8,0,14.2,1.5,18.8,4.5c4.5,3,8,6.9,10.5,11.8V46.9h24.1v130.4h-23.4v-15.2c-2.5,5.2-6,9.5-10.6,12.7
	C780.2,178,773.8,179.6,765.4,179.6z M769.4,157.8c5.4,0,10-1.2,13.8-3.7c3.9-2.4,6.9-5.7,9-9.7c2.1-4,3.2-8.5,3.2-13.2
	c0-4.9-1.1-9.3-3.2-13.4c-2.1-4-5.2-7.3-9-9.8c-3.9-2.5-8.5-3.8-13.8-3.8c-5.1,0-9.6,1.2-13.5,3.7c-3.9,2.4-6.9,5.7-9,9.7
	c-2.1,4.1-3.2,8.5-3.2,13.4c0,4.6,1.1,9,3.2,13.1c2.1,4.1,5.2,7.4,9,9.9C759.7,156.5,764.2,157.8,769.4,157.8z"/>
</svg>
