<?xml version="1.0" encoding="UTF-8"?><svg id="Layer_1" xmlns="http://www.w3.org/2000/svg" width="1049.7" height="269.9" viewBox="0 0 1049.7 269.9"><rect width="1049.7" height="269.9" style="fill:none;"/><path id="House" d="M915.6,147.9h-19.9v-19.9h19.9v19.9ZM946.1,128h-19.9v19.9h19.9v-19.9ZM915.6,157.1h-19.9v19.9h19.9v-19.9ZM946.1,157.1h-19.9v19.9h19.9v-19.9ZM1002.7,108.9l-81.8-63.4-81.8,63.4v68.1h23.5v-56.6l58.3-45.2,58.3,45.2v79H46.9v23.5h955.9v-114h-.1Z" style="fill:#8dc126;"/><path id="Surestead" d="M94.5,179.6c-9.9,0-19-2.1-27.2-6.3-8.3-4.2-15.2-11.1-20.6-20.6l21.6-13.8c3.2,6.4,7.3,11.1,12.1,14,4.9,2.9,10.1,4.4,15.5,4.4,5.8,0,10.4-1.3,13.8-3.9,3.3-2.6,5-6.1,5-10.4s-1.3-7.5-3.9-10-6.1-4.5-10.5-6.1c-4.3-1.5-9.1-3-14.2-4.3-9.6-2.5-17.3-6.6-23-12.4-5.7-5.8-8.6-13.4-8.6-22.8,0-7.5,1.8-14.1,5.5-19.7s8.8-9.9,15.5-13c6.6-3.1,14.3-4.6,23.1-4.6,9.8,0,17.9,2,24.5,6.1,6.5,4.1,12.1,9.8,16.8,17.2l-21.4,13.2c-3-4.9-6.1-8.5-9.3-10.7-3.2-2.3-7.1-3.4-11.8-3.4-5,0-9.1,1.3-12.4,3.8s-4.9,5.8-4.9,10c0,4.6,1.9,8,5.8,10.1s8.5,4,14,5.6c3.7,1.2,7.8,2.6,12.4,4.2s9,3.8,13.3,6.6c4.3,2.8,7.8,6.5,10.5,11.2,2.7,4.6,4.1,10.5,4.1,17.7s-1.8,14.1-5.5,19.8-8.9,10.2-15.7,13.4c-6.9,3.1-15,4.7-24.5,4.7ZM180.4,179.4c-6.7,0-12.7-1.5-18-4.6s-9.6-7.5-12.7-13.3c-3.1-5.8-4.6-12.5-4.6-20.3v-56.8h24.1v50.9c0,8,1.6,13.8,4.8,17.5s7.8,5.5,13.8,5.5c5.1,0,9.6-1.8,13.5-5.5s5.8-9.5,5.8-17.5v-50.9h24.1v92.9h-23.4v-13.9c-2.3,5.4-5.6,9.4-9.9,12.1-4.5,2.6-10.3,3.9-17.5,3.9ZM241.8,177.3v-92.9h23.4v17.7c1.5-6.7,4.7-11.8,9.5-15.3s11.2-5,19.3-4.6v22.7h-3.4c-6.9,0-12.7,2.2-17.5,6.6s-7.1,10.5-7.1,18.2v47.5h-24.2v.1ZM339.4,179.6c-9.5,0-17.9-2.2-25.2-6.6-7.3-4.4-12.9-10.3-16.9-17.6s-6-15.5-6-24.4,2.1-17.1,6.3-24.6c4.2-7.4,9.9-13.4,17.1-17.8,7.2-4.4,15.5-6.6,24.7-6.6s17.5,2.2,24.6,6.6,12.6,10.3,16.6,17.8c4,7.4,6,15.6,6,24.6,0,1.3-.1,2.7-.2,4.1-.1,1.4-.3,2.9-.5,4.5h-69.5c1.3,5.5,4,9.9,8,13.4s9,5.2,15.1,5.2c5.2,0,9.8-1.2,13.7-3.6,3.9-2.4,6.9-5.4,9-8.9l18.8,14.1c-3.7,5.8-9.2,10.6-16.6,14.3-7.6,3.6-15.9,5.5-25,5.5ZM339,102.8c-5.7,0-10.6,1.7-14.6,5.2s-6.7,8-8,13.6h45.9c-1.3-5.1-4-9.5-8.1-13.2-4.2-3.8-9.2-5.6-15.2-5.6ZM421.7,179.6c-15.6,0-28.5-5.4-38.6-16.3l16.3-14.8c6.8,7.6,14.1,11.4,21.8,11.4,4.2,0,7.4-.9,9.6-2.8,2.2-1.8,3.3-4.1,3.3-6.9,0-1.7-.4-3.1-1.2-4.3-.8-1.2-2.4-2.3-4.8-3.4-2.4-1.1-6.1-2.1-11-3.2-8.3-2-14.5-4.5-18.6-7.5-4-3-6.7-6.3-8-10s-2-7.5-2-11.4c0-8.1,3.1-14.9,9.2-20.3,6.1-5.4,14.6-8.1,25.5-8.1,7.5,0,13.9,1.1,19.3,3.4s10.4,6.5,15.2,12.7l-17.5,13.4c-2.3-3.6-4.8-6.1-7.6-7.7-2.8-1.5-5.7-2.3-8.8-2.3-3.3,0-6.1.7-8.3,2-2.2,1.3-3.3,3.4-3.3,6.3,0,1.5.7,3.1,2.1,4.6s4.9,2.9,10.4,4.4c9,2.3,16,4.9,20.7,7.9,4.8,3,8,6.5,9.8,10.3s2.7,8,2.7,12.7c0,5.7-1.6,10.8-4.7,15.4-3.2,4.5-7.4,8.1-12.9,10.7-5.5,2.5-11.7,3.8-18.6,3.8ZM501.6,177.3c-9.2,0-16.2-2.3-21.1-6.8s-7.3-11.8-7.3-22v-43.6h-13v-20.5h13v-18.8l24.1-2.5v21.3h19.7v20.5h-19.7v42.3c0,5.7,2.5,8.6,7.5,8.6h10v21.4h-13.2v.1ZM563.4,179.6c-9.5,0-17.9-2.2-25.2-6.6-7.3-4.4-12.9-10.3-16.9-17.6s-6-15.5-6-24.4,2.1-17.1,6.3-24.6c4.2-7.4,9.9-13.4,17.1-17.8,7.2-4.4,15.5-6.6,24.7-6.6s17.5,2.2,24.6,6.6,12.6,10.3,16.6,17.8c4,7.4,6,15.6,6,24.6,0,1.3-.1,2.7-.2,4.1-.1,1.4-.3,2.9-.5,4.5h-69.5c1.3,5.5,4,9.9,8,13.4s9,5.2,15.1,5.2c5.2,0,9.8-1.2,13.7-3.6,3.9-2.4,6.9-5.4,9-8.9l18.8,14.1c-3.7,5.8-9.2,10.6-16.6,14.3-7.6,3.6-15.8,5.5-25,5.5ZM563,102.8c-5.7,0-10.6,1.7-14.6,5.2s-6.7,8-8,13.6h45.9c-1.3-5.1-4-9.5-8.1-13.2-4.2-3.8-9.2-5.6-15.2-5.6ZM660.7,179.6c-8.5,0-16.2-2.2-23.1-6.5-7-4.3-12.5-10.2-16.6-17.5s-6.2-15.5-6.2-24.4c0-6.7,1.2-13,3.6-18.8,2.4-5.9,5.7-11.1,9.8-15.5,4.2-4.5,9-8,14.6-10.5,5.5-2.6,11.5-3.8,18-3.8,8.1,0,14.4,1.5,18.9,4.6,4.5,3,8,7.1,10.5,12.1v-14.9h23.9v92.9h-23.4v-15.2c-2.5,5.2-6,9.5-10.6,12.7-4.6,3.2-11,4.8-19.4,4.8ZM664.7,157.8c5.4,0,10-1.2,13.8-3.7,3.9-2.4,6.9-5.7,9-9.7s3.2-8.5,3.2-13.2-1.1-9.3-3.2-13.4c-2.1-4-5.2-7.3-9-9.8-3.9-2.5-8.5-3.8-13.8-3.8s-9.6,1.2-13.5,3.7c-3.9,2.4-6.9,5.7-9,9.7-2.1,4.1-3.2,8.5-3.2,13.4,0,4.6,1.1,9,3.2,13.1,2.1,4.1,5.2,7.4,9,9.9,3.9,2.5,8.4,3.8,13.5,3.8ZM765.4,179.6c-8.5,0-16.2-2.2-23.1-6.5-7-4.3-12.5-10.2-16.6-17.5s-6.2-15.5-6.2-24.4c0-6.7,1.2-13,3.6-18.8,2.4-5.9,5.7-11.1,9.8-15.5,4.2-4.5,9-8,14.6-10.5,5.5-2.6,11.5-3.8,18-3.8,8,0,14.2,1.5,18.8,4.5,4.5,3,8,6.9,10.5,11.8v-52h24.1v130.4h-23.4v-15.2c-2.5,5.2-6,9.5-10.6,12.7-4.7,3.2-11.1,4.8-19.5,4.8ZM769.4,157.8c5.4,0,10-1.2,13.8-3.7,3.9-2.4,6.9-5.7,9-9.7s3.2-8.5,3.2-13.2-1.1-9.3-3.2-13.4c-2.1-4-5.2-7.3-9-9.8-3.9-2.5-8.5-3.8-13.8-3.8s-9.6,1.2-13.5,3.7c-3.9,2.4-6.9,5.7-9,9.7-2.1,4.1-3.2,8.5-3.2,13.4,0,4.6,1.1,9,3.2,13.1,2.1,4.1,5.2,7.4,9,9.9s8.3,3.8,13.5,3.8Z" style="fill:#fff;"/></svg>