<?xml version="1.0" encoding="utf-8"?>
<!-- Generator: Adobe Illustrator 26.4.1, SVG Export Plug-In . SVG Version: 6.00 Build 0)  -->
<svg version="1.1" id="Logo" xmlns="http://www.w3.org/2000/svg" xmlns:xlink="http://www.w3.org/1999/xlink" x="0px" y="0px"
	 viewBox="0 0 678 904.4" style="enable-background:new 0 0 678 904.4;" xml:space="preserve">
<style type="text/css">
	.st0{fill:#FFFFFF;}
	.st1{fill:#8DC126;}
</style>
<path id="Surestead" class="st0" d="M42,904.4c-8.7,0-16.7-1.9-23.9-5.6c-7.3-3.7-13.3-9.7-18.1-18.1l19-12.1
	c2.8,5.6,6.4,9.8,10.7,12.3c4.3,2.6,8.8,3.8,13.6,3.8c5.1,0,9.1-1.1,12.1-3.5c2.9-2.3,4.4-5.3,4.4-9.1c0-3.7-1.2-6.6-3.5-8.8
	c-2.3-2.2-5.4-4-9.2-5.3c-3.8-1.4-8-2.6-12.5-3.8c-8.5-2.2-15.2-5.8-20.2-10.9c-5-5.1-7.5-11.7-7.5-20c0-6.6,1.6-12.3,4.9-17.3
	c3.2-4.9,7.8-8.7,13.6-11.4c5.8-2.7,12.6-4.1,20.3-4.1c8.6,0,15.7,1.8,21.5,5.3c5.7,3.6,10.7,8.6,14.7,15.1L63,822.7
	c-2.6-4.3-5.3-7.4-8.2-9.4c-2.8-2-6.3-3-10.4-3c-4.4,0-8,1.1-10.9,3.3c-2.9,2.2-4.3,5.1-4.3,8.8c0,4.1,1.7,7,5.1,8.9
	c3.4,1.8,7.5,3.5,12.3,4.9c3.2,1,6.9,2.3,10.9,3.7c4,1.4,7.9,3.3,11.7,5.8c3.8,2.5,6.8,5.7,9.3,9.8c2.4,4.1,3.6,9.3,3.6,15.5
	c0,6.6-1.6,12.4-4.9,17.4c-3.2,5-7.8,8.9-13.8,11.8C57.6,903,50.4,904.4,42,904.4z M117.5,904.2c-5.9,0-11.1-1.4-15.8-4.1
	c-4.7-2.7-8.4-6.6-11.1-11.7c-2.7-5.1-4.1-11-4.1-17.8v-49.9h21.2v44.7c0,7,1.4,12.1,4.2,15.4c2.8,3.2,6.8,4.9,12.1,4.9
	c4.5,0,8.4-1.6,11.8-4.9c3.4-3.2,5.1-8.4,5.1-15.4v-44.7H162v81.6h-20.5v-12.2c-2,4.7-4.9,8.2-8.7,10.6
	C128.9,903.1,123.8,904.2,117.5,904.2z M171.4,902.3v-81.6H192v15.5c1.4-5.9,4.1-10.3,8.3-13.4c4.2-3.1,9.8-4.4,16.9-4v19.9h-3
	c-6.1,0-11.2,1.9-15.4,5.8c-4.2,3.9-6.3,9.2-6.3,16v41.7H171.4z M257.1,904.4c-8.4,0-15.7-1.9-22.1-5.8c-6.4-3.9-11.3-9-14.8-15.4
	c-3.5-6.4-5.3-13.6-5.3-21.4s1.8-15,5.5-21.6c3.7-6.5,8.7-11.7,15-15.6c6.3-3.9,13.6-5.8,21.7-5.8c8.2,0,15.3,1.9,21.6,5.8
	c6.2,3.9,11.1,9.1,14.6,15.6c3.5,6.5,5.3,13.7,5.3,21.6c0,1.2-0.1,2.4-0.2,3.6c-0.1,1.3-0.3,2.6-0.5,3.9h-61c1.1,4.8,3.5,8.7,7,11.8
	c3.5,3,7.9,4.5,13.3,4.5c4.6,0,8.6-1,12-3.1c3.4-2.1,6-4.7,7.9-7.8l16.5,12.4c-3.2,5.1-8.1,9.3-14.6,12.5
	C272.4,902.8,265.1,904.4,257.1,904.4z M256.7,836.9c-5,0-9.3,1.5-12.9,4.5c-3.6,3-5.9,7-7.1,11.9h40.3c-1.2-4.5-3.5-8.4-7.1-11.6
	C266.4,838.6,262,836.9,256.7,836.9z M329.4,904.4c-13.7,0-25-4.8-33.9-14.3l14.3-13c6,6.7,12.3,10,19.1,10c3.7,0,6.5-0.8,8.4-2.4
	c1.9-1.6,2.9-3.6,2.9-6c0-1.5-0.3-2.7-1-3.8c-0.7-1-2.1-2-4.2-3c-2.1-0.9-5.4-1.9-9.6-2.8c-7.3-1.8-12.8-4-16.3-6.6
	c-3.6-2.6-5.9-5.5-7.1-8.8c-1.2-3.2-1.7-6.6-1.7-10c0-7.1,2.7-13,8.1-17.8c5.4-4.8,12.8-7.1,22.3-7.1c6.6,0,12.2,1,16.9,3
	c4.7,2,9.1,5.7,13.3,11.1l-15.4,11.8c-2-3.1-4.2-5.4-6.7-6.7c-2.5-1.4-5-2-7.8-2c-2.9,0-5.4,0.6-7.3,1.7c-1.9,1.2-2.9,3-2.9,5.5
	c0,1.4,0.6,2.7,1.9,4c1.3,1.3,4.3,2.6,9.1,3.8c7.9,2,14,4.3,18.2,7c4.2,2.7,7.1,5.7,8.6,9c1.6,3.3,2.4,7.1,2.4,11.1
	c0,5-1.4,9.5-4.2,13.5c-2.8,4-6.5,7.1-11.3,9.4C340.8,903.2,335.4,904.4,329.4,904.4z M399.5,902.3c-8.1,0-14.2-2-18.5-6
	c-4.3-4-6.4-10.4-6.4-19.3v-38.3h-11.4v-18h11.4v-16.5l21.2-2.2v18.7h17.3v18h-17.3V876c0,5,2.2,7.5,6.6,7.5h8.8v18.8H399.5z
	 M453.7,904.4c-8.4,0-15.7-1.9-22.1-5.8c-6.4-3.9-11.3-9-14.8-15.4c-3.5-6.4-5.3-13.6-5.3-21.4s1.8-15,5.5-21.6
	c3.7-6.5,8.7-11.7,15-15.6c6.3-3.9,13.6-5.8,21.7-5.8c8.2,0,15.3,1.9,21.6,5.8c6.2,3.9,11.1,9.1,14.6,15.6
	c3.5,6.5,5.3,13.7,5.3,21.6c0,1.2-0.1,2.4-0.2,3.6c-0.1,1.3-0.3,2.6-0.5,3.9h-61c1.1,4.8,3.5,8.7,7,11.8c3.5,3,7.9,4.5,13.3,4.5
	c4.6,0,8.6-1,12-3.1c3.4-2.1,6-4.7,7.9-7.8l16.5,12.4c-3.2,5.1-8.1,9.3-14.6,12.5C469,902.8,461.8,904.4,453.7,904.4z M453.4,836.9
	c-5,0-9.3,1.5-12.9,4.5c-3.6,3-5.9,7-7.1,11.9h40.3c-1.2-4.5-3.5-8.4-7.1-11.6C463.1,838.6,458.6,836.9,453.4,836.9z M539.2,904.4
	c-7.4,0-14.2-1.9-20.3-5.7c-6.1-3.8-11-8.9-14.6-15.4c-3.6-6.4-5.4-13.6-5.4-21.4c0-5.9,1-11.4,3.1-16.5c2.1-5.2,5-9.7,8.6-13.6
	c3.7-3.9,7.9-7,12.8-9.3c4.9-2.2,10.1-3.4,15.8-3.4c7.1,0,12.7,1.3,16.6,4c4,2.7,7.1,6.2,9.3,10.6v-12.9h21v81.6h-20.5V889
	c-2.2,4.6-5.3,8.3-9.3,11.1C552.2,903,546.5,904.4,539.2,904.4z M542.7,885.3c4.7,0,8.8-1.1,12.2-3.2c3.4-2.1,6-5,7.9-8.5
	c1.9-3.6,2.8-7.4,2.8-11.6c0-4.3-0.9-8.2-2.8-11.8c-1.9-3.6-4.5-6.4-7.9-8.6c-3.4-2.2-7.5-3.3-12.2-3.3c-4.5,0-8.4,1.1-11.8,3.2
	c-3.4,2.1-6,5-7.9,8.5c-1.9,3.6-2.8,7.5-2.8,11.8c0,4.1,0.9,7.9,2.8,11.5c1.9,3.6,4.5,6.5,7.9,8.7
	C534.2,884.2,538.2,885.3,542.7,885.3z M631.1,904.4c-7.4,0-14.2-1.9-20.3-5.7c-6.1-3.8-11-8.9-14.6-15.4
	c-3.6-6.4-5.4-13.6-5.4-21.4c0-5.9,1-11.4,3.1-16.5c2.1-5.2,5-9.7,8.6-13.6c3.7-3.9,7.9-7,12.8-9.3c4.9-2.2,10.1-3.4,15.8-3.4
	c7,0,12.5,1.3,16.5,3.9c4,2.6,7.1,6.1,9.3,10.4v-45.5H678v114.5h-20.5V889c-2.2,4.6-5.3,8.3-9.3,11.1
	C644.1,903,638.4,904.4,631.1,904.4z M634.6,885.3c4.7,0,8.8-1.1,12.2-3.2c3.4-2.1,6-5,7.9-8.5c1.9-3.6,2.8-7.4,2.8-11.6
	c0-4.3-0.9-8.2-2.8-11.8c-1.9-3.6-4.5-6.4-7.9-8.6c-3.4-2.2-7.5-3.3-12.2-3.3c-4.5,0-8.4,1.1-11.8,3.2c-3.4,2.1-6,5-7.9,8.5
	c-1.9,3.6-2.8,7.5-2.8,11.8c0,4.1,0.9,7.9,2.8,11.5c1.9,3.6,4.5,6.5,7.9,8.7C626.1,884.2,630.1,885.3,634.6,885.3z"/>
<path id="House_00000043423719106478779650000006094636446835682993_" class="st1" d="M320.5,420.1h-81.9v-81.9h81.9V420.1z
	 M445.8,338.2h-81.9v81.9h81.9V338.2z M320.5,457.8h-81.9v81.9h81.9V457.8z M445.8,457.8h-81.9v81.9h81.9V457.8z M677.9,260L342.2,0
	L6.5,260v279.7H102V306.8l240.2-186l240.2,186v325.6H6.4v95.5h671.5V260z"/>
</svg>
