<?xml version="1.0" encoding="utf-8"?>
<!-- Generator: Adobe Illustrator 26.4.1, SVG Export Plug-In . SVG Version: 6.00 Build 0)  -->
<svg version="1.1" id="Logo" xmlns="http://www.w3.org/2000/svg" xmlns:xlink="http://www.w3.org/1999/xlink" x="0px" y="0px"
	 viewBox="0 0 1062 1288" style="enable-background:new 0 0 1062 1288;" xml:space="preserve">
<style type="text/css">
	.st0{fill:none;}
	.st1{fill:#FFFFFF;}
	.st2{fill:#8DC126;}
</style>
<g id="Clear_space">
	<g>
	</g>
	<g>
	</g>
	<g>
	</g>
	<g>
	</g>
</g>
<rect class="st0" width="1062" height="1288"/>
<path id="Surestead" class="st1" d="M234,1096.2c-8.7,0-16.7-1.9-23.9-5.6c-7.3-3.7-13.3-9.7-18.1-18.1l19-12.1
	c2.8,5.6,6.4,9.8,10.7,12.3c4.3,2.6,8.8,3.8,13.6,3.8c5.1,0,9.1-1.1,12.1-3.5c2.9-2.3,4.4-5.3,4.4-9.1c0-3.7-1.2-6.6-3.5-8.8
	c-2.3-2.2-5.4-4-9.2-5.3c-3.8-1.4-8-2.6-12.5-3.8c-8.5-2.2-15.2-5.8-20.2-10.9c-5-5.1-7.5-11.7-7.5-20c0-6.6,1.6-12.3,4.9-17.3
	c3.2-4.9,7.8-8.7,13.6-11.4c5.8-2.7,12.6-4.1,20.3-4.1c8.6,0,15.7,1.8,21.5,5.3c5.7,3.6,10.7,8.6,14.7,15.1l-18.8,11.6
	c-2.6-4.3-5.3-7.4-8.2-9.4c-2.8-2-6.3-3-10.4-3c-4.4,0-8,1.1-10.9,3.3c-2.9,2.2-4.3,5.1-4.3,8.8c0,4.1,1.7,7,5.1,8.9
	c3.4,1.8,7.5,3.5,12.3,4.9c3.2,1,6.9,2.3,10.9,3.7c4,1.4,7.9,3.3,11.7,5.8c3.8,2.5,6.8,5.7,9.3,9.8c2.4,4.1,3.6,9.3,3.6,15.5
	c0,6.6-1.6,12.4-4.9,17.4c-3.2,5-7.8,8.9-13.8,11.8C249.6,1094.8,242.4,1096.2,234,1096.2z M309.5,1096c-5.9,0-11.1-1.4-15.8-4.1
	c-4.7-2.7-8.4-6.6-11.1-11.7c-2.7-5.1-4.1-11-4.1-17.8v-49.9h21.2v44.7c0,7,1.4,12.1,4.2,15.4c2.8,3.2,6.8,4.9,12.1,4.9
	c4.5,0,8.4-1.6,11.8-4.9c3.4-3.2,5.1-8.4,5.1-15.4v-44.7H354v81.6h-20.5v-12.2c-2,4.7-4.9,8.2-8.7,10.6
	C320.9,1094.9,315.8,1096,309.5,1096z M363.4,1094.2v-81.6H384v15.5c1.4-5.9,4.1-10.3,8.3-13.4c4.2-3.1,9.8-4.4,16.9-4v19.9h-3
	c-6.1,0-11.2,1.9-15.4,5.8c-4.2,3.9-6.3,9.2-6.3,16v41.7H363.4z M449.1,1096.2c-8.4,0-15.7-1.9-22.1-5.8c-6.4-3.9-11.3-9-14.8-15.4
	c-3.5-6.4-5.3-13.6-5.3-21.4s1.8-15,5.5-21.6c3.7-6.5,8.7-11.7,15-15.6c6.3-3.9,13.6-5.8,21.7-5.8s15.3,1.9,21.6,5.8
	c6.2,3.9,11.1,9.1,14.6,15.6c3.5,6.5,5.3,13.7,5.3,21.6c0,1.2-0.1,2.4-0.2,3.6c-0.1,1.3-0.3,2.6-0.5,3.9h-61c1.1,4.8,3.5,8.7,7,11.8
	c3.5,3,7.9,4.5,13.3,4.5c4.6,0,8.6-1,12-3.1c3.4-2.1,6-4.7,7.9-7.8l16.5,12.4c-3.2,5.1-8.1,9.3-14.6,12.5
	C464.4,1094.6,457.1,1096.2,449.1,1096.2z M448.7,1028.8c-5,0-9.3,1.5-12.9,4.5c-3.6,3-5.9,7-7.1,11.9h40.3
	c-1.2-4.5-3.5-8.4-7.1-11.6C458.4,1030.4,454,1028.8,448.7,1028.8z M521.4,1096.2c-13.7,0-25-4.8-33.9-14.3l14.3-13
	c6,6.7,12.3,10,19.1,10c3.7,0,6.5-0.8,8.4-2.4c1.9-1.6,2.9-3.6,2.9-6c0-1.5-0.3-2.7-1-3.8c-0.7-1-2.1-2-4.2-3
	c-2.1-0.9-5.4-1.9-9.6-2.8c-7.3-1.8-12.8-4-16.3-6.6c-3.6-2.6-5.9-5.5-7.1-8.8c-1.2-3.2-1.7-6.6-1.7-10c0-7.1,2.7-13,8.1-17.8
	c5.4-4.8,12.8-7.1,22.3-7.1c6.6,0,12.2,1,16.9,3c4.7,2,9.1,5.7,13.3,11.1l-15.4,11.8c-2-3.1-4.2-5.4-6.7-6.7c-2.5-1.4-5-2-7.8-2
	c-2.9,0-5.4,0.6-7.3,1.7c-1.9,1.2-2.9,3-2.9,5.5c0,1.4,0.6,2.7,1.9,4c1.3,1.3,4.3,2.6,9.1,3.8c7.9,2,14,4.3,18.2,7
	c4.2,2.7,7.1,5.7,8.6,9c1.6,3.3,2.4,7.1,2.4,11.1c0,5-1.4,9.5-4.2,13.5c-2.8,4-6.5,7.1-11.3,9.4
	C532.8,1095,527.4,1096.2,521.4,1096.2z M591.5,1094.2c-8.1,0-14.2-2-18.5-6c-4.3-4-6.4-10.4-6.4-19.3v-38.3h-11.4v-18h11.4v-16.5
	l21.2-2.2v18.7h17.3v18h-17.3v37.2c0,5,2.2,7.5,6.6,7.5h8.8v18.8H591.5z M645.7,1096.2c-8.4,0-15.7-1.9-22.1-5.8
	c-6.4-3.9-11.3-9-14.8-15.4c-3.5-6.4-5.3-13.6-5.3-21.4s1.8-15,5.5-21.6c3.7-6.5,8.7-11.7,15-15.6c6.3-3.9,13.6-5.8,21.7-5.8
	c8.2,0,15.3,1.9,21.6,5.8c6.2,3.9,11.1,9.1,14.6,15.6c3.5,6.5,5.3,13.7,5.3,21.6c0,1.2-0.1,2.4-0.2,3.6c-0.1,1.3-0.3,2.6-0.5,3.9
	h-61c1.1,4.8,3.5,8.7,7,11.8c3.5,3,7.9,4.5,13.3,4.5c4.6,0,8.6-1,12-3.1c3.4-2.1,6-4.7,7.9-7.8l16.5,12.4
	c-3.2,5.1-8.1,9.3-14.6,12.5C661,1094.6,653.8,1096.2,645.7,1096.2z M645.4,1028.8c-5,0-9.3,1.5-12.9,4.5c-3.6,3-5.9,7-7.1,11.9
	h40.3c-1.2-4.5-3.5-8.4-7.1-11.6C655.1,1030.4,650.6,1028.8,645.4,1028.8z M731.2,1096.2c-7.4,0-14.2-1.9-20.3-5.7
	c-6.1-3.8-11-8.9-14.6-15.4c-3.6-6.4-5.4-13.6-5.4-21.4c0-5.9,1-11.4,3.1-16.5c2.1-5.2,5-9.7,8.6-13.6c3.7-3.9,7.9-7,12.8-9.3
	c4.9-2.2,10.1-3.4,15.8-3.4c7.1,0,12.7,1.3,16.6,4c4,2.7,7.1,6.2,9.3,10.6v-12.9h21v81.6h-20.5v-13.3c-2.2,4.6-5.3,8.3-9.3,11.1
	C744.2,1094.8,738.5,1096.2,731.2,1096.2z M734.7,1077.1c4.7,0,8.8-1.1,12.2-3.2c3.4-2.1,6-5,7.9-8.5c1.9-3.6,2.8-7.4,2.8-11.6
	c0-4.3-0.9-8.2-2.8-11.8c-1.9-3.6-4.5-6.4-7.9-8.6c-3.4-2.2-7.5-3.3-12.2-3.3c-4.5,0-8.4,1.1-11.8,3.2c-3.4,2.1-6,5-7.9,8.5
	c-1.9,3.6-2.8,7.5-2.8,11.8c0,4.1,0.9,7.9,2.8,11.5s4.5,6.5,7.9,8.7C726.2,1076,730.2,1077.1,734.7,1077.1z M823.1,1096.2
	c-7.4,0-14.2-1.9-20.3-5.7c-6.1-3.8-11-8.9-14.6-15.4c-3.6-6.4-5.4-13.6-5.4-21.4c0-5.9,1-11.4,3.1-16.5c2.1-5.2,5-9.7,8.6-13.6
	c3.7-3.9,7.9-7,12.8-9.3c4.9-2.2,10.1-3.4,15.8-3.4c7,0,12.5,1.3,16.5,3.9c4,2.6,7.1,6.1,9.3,10.4v-45.5H870v114.5h-20.5v-13.3
	c-2.2,4.6-5.3,8.3-9.3,11.1C836.1,1094.8,830.4,1096.2,823.1,1096.2z M826.6,1077.1c4.7,0,8.8-1.1,12.2-3.2c3.4-2.1,6-5,7.9-8.5
	c1.9-3.6,2.8-7.4,2.8-11.6c0-4.3-0.9-8.2-2.8-11.8c-1.9-3.6-4.5-6.4-7.9-8.6c-3.4-2.2-7.5-3.3-12.2-3.3c-4.5,0-8.4,1.1-11.8,3.2
	c-3.4,2.1-6,5-7.9,8.5c-1.9,3.6-2.8,7.5-2.8,11.8c0,4.1,0.9,7.9,2.8,11.5c1.9,3.6,4.5,6.5,7.9,8.7
	C818.1,1076,822.1,1077.1,826.6,1077.1z"/>
<path id="House_00000043423719106478779650000006094636446835682993_" class="st2" d="M512.5,611.9h-81.9V530h81.9V611.9z
	 M637.8,530h-81.9v81.9h81.9V530z M512.5,649.6h-81.9v81.9h81.9V649.6z M637.8,649.6h-81.9v81.9h81.9V649.6z M869.9,451.8
	l-335.7-260l-335.7,260v279.7H294V498.6l240.2-186l240.2,186v325.6h-576v95.5h671.5V451.8z"/>
</svg>
