<?xml version="1.0" encoding="UTF-8" standalone="no"?><!DOCTYPE svg PUBLIC "-//W3C//DTD SVG 1.1//EN" "http://www.w3.org/Graphics/SVG/1.1/DTD/svg11.dtd"><svg width="100%" height="100%" viewBox="0 0 2099 2275" version="1.1" xmlns="http://www.w3.org/2000/svg" xmlns:xlink="http://www.w3.org/1999/xlink" xml:space="preserve" xmlns:serif="http://www.serif.com/" style="fill-rule:evenodd;clip-rule:evenodd;stroke-linejoin:round;stroke-miterlimit:2;"><path id="House" d="M981.563,1312.81l-255.938,-0.001l0,-255.937l255.938,0l-0,255.938Zm391.562,-255.938l-255.938,0l0.001,255.938l255.937,-0.001l-0,-255.937Zm-391.563,373.75l-255.937,0l0,255.938l255.938,-0l-0,-255.938Zm391.562,0l-255.938,0l0.001,255.938l255.937,-0l-0,-255.938Zm725.313,-618.125l-1049.06,-812.5l-1049.06,812.5l0.001,874.063l298.437,-0l0,-727.813l750.625,-581.25l750.625,581.25l0,1017.5l-1800,0l0,298.438l2098.44,-0l-0.001,-1462.19Z" style="fill:#8dc126;fill-rule:nonzero;"/></svg>