<?xml version="1.0" encoding="UTF-8"?><svg id="Layer_1" xmlns="http://www.w3.org/2000/svg" viewBox="0 0 77 73"><defs><style>.cls-1{fill:#c6e093;fill-rule:evenodd;}</style></defs><path class="cls-1" d="M25.01,45.23c.38,.36,.4,.97,.04,1.35-.36,.38-.97,.4-1.35,.04-6.63-6.27-6.8-16.77-.33-23.24,5.42-5.42,13.92-6.32,20.35-2.1,2.63,1.72,4.73,4.2,5.99,7.12,.21,.49-.01,1.05-.5,1.26s-1.05-.01-1.26-.5c-2.25-5.18-7.37-8.61-13.12-8.61-7.9,0-14.29,6.4-14.29,14.29,0,3.97,1.64,7.7,4.47,10.38h0Zm.93,13.34c.48,.23,.68,.8,.45,1.28-.23,.48-.8,.68-1.28,.45l-3.58-1.82-3.9,2.99c-1.77,1.36-4.25,1.19-5.83-.38l-3.22-3.22c-1.58-1.58-1.74-4.06-.38-5.83l2.99-3.91c-1.07-1.89-1.9-3.89-2.49-5.98l-4.87-.64c-2.21-.29-3.85-2.16-3.85-4.39v-4.56c0-2.23,1.64-4.1,3.85-4.39l4.87-.64c.59-2.1,1.42-4.09,2.49-5.98l-2.99-3.91c-1.36-1.77-1.2-4.25,.38-5.83l3.22-3.22c1.58-1.58,4.06-1.74,5.83-.38l3.91,2.99c1.89-1.07,3.89-1.9,5.99-2.49l.64-4.87c.29-2.21,2.16-3.85,4.39-3.85h4.56c2.23,0,4.1,1.64,4.39,3.85l.64,4.87c2.1,.59,4.09,1.42,5.99,2.49l3.9-2.99c1.77-1.36,4.25-1.2,5.83,.38l1.72,1.72c.38,.38,.38,.98,0,1.36-.38,.38-.98,.38-1.36,0l-1.72-1.72c-.9-.9-2.29-.99-3.3-.21l-4.41,3.38c-.31,.24-.74,.26-1.07,.06-2.06-1.23-4.33-2.17-6.67-2.76-.38-.1-.67-.42-.72-.81l-.74-5.51c-.16-1.26-1.22-2.18-2.49-2.18h-4.56c-1.28,0-2.32,.92-2.49,2.18l-.72,5.45c-.03,.4-.31,.77-.73,.87-1.18,.3-2.32,.68-3.43,1.14-1.12,.46-2.19,1-3.2,1.6-.33,.21-.78,.21-1.11-.04l-4.41-3.38c-1.01-.77-2.4-.68-3.3,.21l-3.22,3.22c-.9,.9-.99,2.29-.21,3.3l3.38,4.41c.24,.31,.26,.74,.06,1.07-1.23,2.06-2.17,4.33-2.76,6.67-.1,.38-.42,.67-.81,.72l-5.51,.73c-1.26,.16-2.18,1.22-2.18,2.49v4.56c0,1.28,.92,2.32,2.18,2.49l5.45,.72c.4,.03,.77,.31,.87,.73,.3,1.18,.68,2.32,1.14,3.43,.46,1.12,1,2.19,1.6,3.2,.22,.33,.21,.78-.04,1.11l-3.38,4.41c-.77,1.01-.68,2.4,.21,3.3l3.22,3.22c.9,.9,2.29,.99,3.3,.21l4.41-3.38c.31-.24,.74-.26,1.07-.06l3.97,2.08Zm1.68-23.23l3.65,4.37c.36,.44,1,.48,1.44,.04l9.24-8.46c.39-.36,.42-.96,.06-1.35s-.96-.42-1.35-.06l-8.56,7.83-3.01-3.6c-.34-.4-.94-.46-1.35-.12-.4,.34-.46,.94-.12,1.35h0Zm41.38-9.3c2.73-4.47-.47-10.31-5.79-10.31s-8.52,5.84-5.79,10.31c1.41,2.3,3.99,3.48,6.54,3.21,2.08-.23,3.94-1.43,5.04-3.21h0Zm-.17,3.1c4.91,2.2,8.16,7.09,8.16,12.58,0,.53-.43,.96-.96,.96h-25.63c-.53,0-.96-.43-.96-.96,0-5.49,3.25-10.39,8.16-12.58-3.87-3.28-4.15-9.18-.53-12.79,3.4-3.4,8.9-3.4,12.31,0,3.61,3.61,3.34,9.51-.54,12.79h0Zm3.85,5.45c-1.46-1.94-3.51-3.42-5.88-4.17-.1,0-2.43,1.3-5.62,.53-.54-.13-1.06-.31-1.56-.53-2.37,.76-4.41,2.23-5.88,4.17-1.31,1.74-2.16,3.86-2.34,6.17h23.63c-.19-2.31-1.03-4.43-2.35-6.17h0Zm-29.48,24.85c3.88-3.29,4.13-9.19,.53-12.79-3.4-3.4-8.9-3.4-12.3,0-3.6,3.6-3.35,9.5,.53,12.79-4.91,2.2-8.16,7.09-8.16,12.58,0,.53,.43,.96,.96,.96h51.26c.53,0,.96-.43,.96-.96,0-5.49-3.25-10.38-8.16-12.58,3.88-3.29,4.13-9.19,.53-12.79-3.4-3.4-8.9-3.4-12.3,0-3.6,3.6-3.35,9.5,.53,12.79-3.29,1.47-5.87,4.18-7.19,7.52-1.33-3.34-3.93-6.05-7.21-7.52h0Zm3.85,5.45c-1.46-1.94-3.51-3.42-5.87-4.17-2.27,1.03-4.93,1.03-7.2,0-2.36,.76-4.41,2.23-5.87,4.17-1.31,1.74-2.16,3.86-2.34,6.17h23.63c-.18-2.31-1.03-4.43-2.34-6.17h0Zm25.63,0c-1.46-1.94-3.51-3.42-5.87-4.17-2.27,1.03-4.93,1.03-7.2,0-2.36,.76-4.41,2.23-5.87,4.17-1.31,1.74-2.16,3.86-2.34,6.17h23.63c-.19-2.31-1.03-4.43-2.35-6.17h0Zm-4.68-16.88c-2.64-2.64-6.93-2.64-9.58,0-2.64,2.64-2.64,6.93,0,9.58,2.64,2.64,6.93,2.64,9.58,0,2.65-2.65,2.65-6.94,0-9.58Zm-25.63,0c-2.64-2.64-6.93-2.64-9.58,0-2.64,2.64-2.64,6.93,0,9.58,2.64,2.64,6.93,2.64,9.58,0,2.65-2.65,2.65-6.94,0-9.58Z"/></svg>