<?xml version="1.0" encoding="UTF-8"?><svg id="Layer_1" xmlns="http://www.w3.org/2000/svg" viewBox="0 0 77 73"><defs><style>.cls-1{fill:#c6e093;}</style></defs><path class="cls-1" d="M43.21,22.31c0-2.88-2.34-5.22-5.22-5.22s-5.22,2.34-5.22,5.22,2.34,5.22,5.22,5.22,5.22-2.34,5.22-5.22Zm-8.47,0c0-1.79,1.46-3.25,3.25-3.25s3.25,1.46,3.25,3.25-1.46,3.25-3.25,3.25-3.25-1.46-3.25-3.25Z"/><path class="cls-1" d="M76.91,26.27c-.23-1.14-.9-2.11-1.87-2.75L40.29,.71c-1.47-.96-3.37-.95-4.83,.04L1.9,23.56c-.96,.65-1.61,1.64-1.83,2.78-.22,1.14,.02,2.3,.67,3.26,.66,.96,1.65,1.61,2.79,1.82,.28,.05,.56,.08,.82,.08h0c.88,0,1.72-.27,2.43-.76l1.4-.95v36.25h-1.98c-.54,0-.98,.44-.98,.98s.44,.98,.98,.98H55.1c.54,0,.98-.44,.98-.98s-.44-.98-.98-.98H10.15V28.45L37.95,9.57l28.49,18.69s0,.02,0,.03v23.49c0,.54,.44,.98,.98,.98s.98-.44,.98-.98V29.54l1.88,1.23c.71,.47,1.54,.72,2.38,.72,1.47,0,2.82-.73,3.63-1.96,.64-.97,.86-2.13,.62-3.27Zm-2.26,2.18c-.45,.67-1.19,1.07-2,1.07-.47,0-.92-.13-1.31-.39L38.48,7.56c-.17-.11-.35-.16-.54-.16s-.39,.06-.55,.17L5.68,29.11c-.51,.35-1.15,.48-1.78,.37-.62-.11-1.16-.47-1.52-1-.74-1.08-.46-2.57,.63-3.31L36.57,2.37c.78-.54,1.86-.54,2.65-.02l34.75,22.8c.53,.34,.89,.88,1.02,1.51,.13,.61,0,1.25-.34,1.79Z"/><path class="cls-1" d="M36.29,58.11c.54,0,.98-.44,.98-.98v-20.5c0-2.12-1.73-3.85-3.85-3.85h-13.44c-2.12,0-3.84,1.73-3.84,3.85v20.5c0,.54,.44,.98,.98,.98s.98-.44,.98-.98v-20.5c0-1.04,.84-1.89,1.88-1.89h13.44c1.04,0,1.89,.85,1.89,1.89v20.5c0,.54,.44,.98,.98,.98Z"/><path class="cls-1" d="M64.6,55.38c-1.27-1.27-1.93-2.96-1.83-4.64,.18-3.08-.96-6.1-3.14-8.28-2.94-2.94-7.37-3.93-11.27-2.52-.32,.11-.56,.38-.63,.71-.07,.33,.03,.68,.27,.91l5.14,5.14c.6,.6,.93,1.4,.93,2.25s-.33,1.65-.93,2.25c-.6,.6-1.4,.93-2.25,.93s-1.65-.33-2.25-.93l-5.14-5.14c-.24-.25-.58-.35-.92-.27-.32,.08-.59,.31-.71,.63-1.41,3.92-.42,8.34,2.52,11.28,2.18,2.18,5.2,3.32,8.28,3.13,1.69-.11,3.39,.56,4.65,1.82l8.83,8.83c.97,.97,2.26,1.51,3.64,1.51s2.68-.54,3.65-1.51c.98-.97,1.51-2.26,1.51-3.64s-.54-2.67-1.51-3.64l-8.84-8.83Zm-18.81,.93c-2-2-2.91-4.84-2.46-7.65l3.93,3.92c.97,.98,2.26,1.51,3.64,1.51s2.67-.54,3.64-1.51c.97-.97,1.51-2.26,1.51-3.64s-.54-2.66-1.51-3.64l-3.93-3.92c2.8-.45,5.64,.46,7.64,2.46,1.78,1.78,2.71,4.25,2.57,6.77-.14,2.25,.73,4.49,2.4,6.16l8.83,8.83c.6,.6,.93,1.4,.93,2.25s-.33,1.65-.93,2.25c-.6,.6-1.4,.93-2.25,.93s-1.65-.33-2.25-.93l-8.83-8.83c-1.54-1.53-3.61-2.41-5.69-2.41-.16,0-.31,0-.47,0-2.49,.16-4.97-.77-6.77-2.56Z"/></svg>