<?xml version="1.0" encoding="UTF-8"?><svg id="Layer_1" xmlns="http://www.w3.org/2000/svg" viewBox="0 0 77 73"><defs><style>.cls-1{fill:#c6e093;fill-rule:evenodd;}</style></defs><path class="cls-1" d="M48.8,71.07c.53,0,.96,.43,.96,.96s-.43,.96-.96,.96H8.07c-4.44,0-8.07-3.63-8.07-8.07V8.07C0,3.63,3.63,0,8.07,0H42.51c.26,0,.5,.1,.68,.29l12.57,12.56c.19,.19,.29,.43,.29,.7v4.52c0,.53-.43,.96-.96,.96s-.96-.43-.96-.96v-3.57h-11.61c-.53,0-.96-.43-.96-.96V1.92H8.07C4.69,1.92,1.92,4.69,1.92,8.07v56.86c0,3.38,2.77,6.15,6.15,6.15H48.8Zm-5.29-26.8l5.16,6.37c.34,.41,.94,.48,1.35,.14l11.6-9.56c.41-.34,.47-.94,.13-1.35s-.94-.47-1.35-.13l-10.85,8.94-4.56-5.62c-.34-.41-.94-.48-1.35-.14s-.47,.94-.14,1.35h0Zm9.12-14.75c-8.69,0-15.74,7.04-15.74,15.74s7.04,15.74,15.74,15.74,15.74-7.04,15.74-15.74-7.04-15.74-15.74-15.74Zm9.77,5.97c-5.39-5.39-14.14-5.39-19.53,0s-5.39,14.14,0,19.53,14.14,5.39,19.53,0c5.4-5.39,5.4-14.14,0-19.53Zm-15.49-11.59c-4.39-2.1-9.53,.87-9.91,5.72-4.85,.38-7.81,5.52-5.72,9.91-4.02,2.76-4.02,8.68,0,11.45-2.1,4.39,.87,9.53,5.72,9.91,.38,4.85,5.52,7.81,9.91,5.72,2.76,4.02,8.68,4.02,11.45,0,4.39,2.1,9.53-.87,9.91-5.72,4.85-.38,7.82-5.52,5.72-9.91,4.02-2.76,4.02-8.68,0-11.45,2.1-4.39-.87-9.53-5.72-9.91-.38-4.86-5.52-7.81-9.91-5.72-2.76-4.02-8.68-4.02-11.45,0h0Zm3.07-.33c-.79,.49-1.44,1.21-1.86,2.06-.25,.52-.92,.7-1.41,.38-2.48-1.67-5.84-.83-7.23,1.8-.44,.83-.64,1.76-.58,2.71,.05,.59-.44,1.07-1.02,1.03-4.14-.28-6.89,4.36-4.52,7.79,.35,.49,.18,1.17-.36,1.43-3.72,1.81-3.78,7.15,0,9.02,.52,.25,.7,.92,.38,1.41-1.67,2.47-.83,5.84,1.8,7.23,.83,.44,1.76,.64,2.71,.58,.59-.05,1.07,.44,1.03,1.02-.28,4.14,4.36,6.89,7.79,4.52,.49-.35,1.17-.18,1.43,.36,1.81,3.72,7.15,3.78,9.02,0,.25-.52,.92-.7,1.41-.38,2.46,1.66,5.83,.83,7.23-1.8,.44-.83,.64-1.76,.58-2.71-.05-.59,.44-1.07,1.02-1.03,4.14,.28,6.89-4.36,4.52-7.79-.35-.49-.18-1.17,.36-1.43,3.72-1.81,3.78-7.15,0-9.02-.52-.25-.7-.92-.38-1.41,1.67-2.48,.83-5.84-1.8-7.23-.83-.44-1.76-.64-2.71-.58-.59,.05-1.07-.44-1.03-1.02,.2-2.99-2.21-5.48-5.18-5.37-.92,.03-1.83,.33-2.61,.84-.49,.35-1.17,.18-1.43-.36-1.3-2.68-4.65-3.63-7.16-2.05h0ZM6.32,58.88l1.94,3.2c.33,.55,1.1,.62,1.54,.14l4.34-4.79c.35-.39,.33-1-.07-1.35-.39-.35-1-.33-1.35,.07l-3.48,3.85-1.27-2.1c-.27-.45-.87-.6-1.32-.33-.47,.27-.61,.86-.34,1.31h0Zm0-12.99l1.94,3.2c.33,.55,1.1,.62,1.54,.14l4.34-4.79c.35-.39,.33-1-.07-1.35-.39-.35-1-.33-1.35,.07l-3.48,3.85-1.27-2.1c-.27-.45-.87-.6-1.32-.33s-.61,.86-.34,1.32h0Zm0-13l1.94,3.2c.33,.55,1.1,.62,1.54,.14l4.34-4.79c.35-.39,.33-1-.07-1.35-.39-.35-1-.33-1.35,.07l-3.48,3.85-1.27-2.1c-.27-.45-.87-.6-1.32-.33s-.61,.86-.34,1.31h0ZM18.24,15.46l5.57,6.88c.34,.41,.94,.48,1.35,.14l12.51-10.33c.41-.34,.47-.94,.13-1.35s-.94-.47-1.35-.13l-11.76,9.7-4.97-6.13c-.34-.41-.94-.48-1.35-.14-.41,.34-.48,.94-.14,1.35h0Zm34.52-2.88L43.48,3.28V12.57h9.29ZM16.66,47.15h4.49c.53,0,.96-.43,.96-.96s-.43-.96-.96-.96h-4.49c-.53,0-.96,.43-.96,.96s.43,.96,.96,.96Zm0-12.99h7.35c.53,0,.96-.43,.96-.96s-.43-.96-.96-.96h-7.35c-.53,0-.96,.43-.96,.96s.43,.96,.96,.96Zm0,26h8.23c.53,0,.96-.43,.96-.96s-.43-.96-.96-.96h-8.23c-.53,0-.96,.43-.96,.96s.43,.96,.96,.96h0Z"/></svg>