<?xml version="1.0" encoding="UTF-8"?><svg id="Layer_1" xmlns="http://www.w3.org/2000/svg" viewBox="0 0 77 73"><defs><style>.cls-1{fill:none;}.cls-2{fill:#c6e093;}</style></defs><path class="cls-2" d="M18.64,28.18h-3.71c-.84,0-1.52-.68-1.52-1.52s.68-1.52,1.52-1.52h5.67c.53,0,.96-.43,.96-.96s-.43-.96-.96-.96h-2.86v-1.73c0-.53-.43-.96-.96-.96s-.96,.43-.96,.96v1.73h-.9c-1.89,0-3.43,1.54-3.43,3.44s1.54,3.44,3.43,3.44h3.71c.84,0,1.52,.68,1.52,1.52s-.68,1.52-1.52,1.52h-5.67c-.53,0-.96,.43-.96,.96s.43,.96,.96,.96h2.86v1.73c0,.53,.43,.96,.96,.96s.96-.43,.96-.96v-1.72h.9c1.89,0,3.43-1.55,3.43-3.45s-1.54-3.44-3.43-3.44Z"/><g><path class="cls-2" d="M12.74,67.88H6.4c-.58,0-1.05-.47-1.05-1.05v-10.8c0-.58,.47-1.05,1.05-1.05h6.34c.58,0,1.05,.47,1.05,1.05v10.8c0,.58-.47,1.05-1.05,1.05Zm-5.49-1.9h4.64v-9.1H7.25v9.1Z"/><path class="cls-2" d="M24.55,67.88h-6.34c-.58,0-1.05-.47-1.05-1.05v-16.68c0-.58,.47-1.05,1.05-1.05h6.34c.58,0,1.05,.47,1.05,1.05v16.68c0,.58-.47,1.05-1.05,1.05Zm-5.49-1.9h4.64v-14.98h-4.64v14.98Z"/><path class="cls-2" d="M36.35,67.88h-6.34c-.58,0-1.05-.47-1.05-1.05v-24.5c0-.58,.47-1.05,1.05-1.05h6.34c.58,0,1.05,.47,1.05,1.05v24.5c0,.58-.47,1.05-1.05,1.05Zm-5.49-1.9h4.64v-22.79h-4.64v22.79Z"/><path class="cls-2" d="M48.16,67.88h-6.34c-.58,0-1.05-.47-1.05-1.05v-17.95c0-.58,.47-1.05,1.05-1.05h6.34c.58,0,1.05,.47,1.05,1.05v17.95c0,.58-.47,1.05-1.05,1.05Zm-5.49-1.9h4.64v-16.25h-4.64v16.25Z"/></g><g><path class="cls-1" d="M48.25,30.33c-.11,.43-.5,.72-.92,.72-.08,0-.15,0-.23-.03-3.26-.82-6.01-2.86-7.74-5.74-1.73-2.89-2.23-6.27-1.41-9.54,.13-.51,.65-.82,1.15-.69,.51,.13,.82,.64,.69,1.15-.7,2.77-.27,5.65,1.2,8.1,1.47,2.45,3.8,4.18,6.57,4.88,.51,.13,.82,.64,.69,1.15Z"/><path class="cls-1" d="M65.47,29.8c-1.22,1.76-2.74,3.29-4.47,4.54l8.77,7.56c.64,.55,1.46,.82,2.31,.76s1.62-.45,2.17-1.09c.55-.64,.82-1.46,.76-2.31-.06-.85-.45-1.62-1.09-2.17l-8.45-7.29Z"/><path class="cls-2" d="M47.56,29.18c-2.77-.69-5.11-2.43-6.57-4.88-1.47-2.45-1.9-5.33-1.2-8.1,.13-.51-.18-1.02-.69-1.15-.5-.13-1.02,.18-1.15,.69-.82,3.26-.32,6.65,1.41,9.54,1.73,2.89,4.48,4.93,7.74,5.74,.08,.02,.15,.03,.23,.03,.42,0,.81-.29,.92-.72,.13-.51-.18-1.02-.69-1.15Z"/><g><path class="cls-1" d="M66.97,18.98c0-9.42-7.66-17.08-17.08-17.08-6.33,0-11.86,3.47-14.81,8.61-.35,.61-.68,1.24-.95,1.9-.85,2.02-1.32,4.25-1.32,6.57,0,9.42,7.66,17.08,17.08,17.08,.91,0,1.79-.09,2.67-.23,.65-.1,1.28-.24,1.9-.41,7.21-2,12.52-8.61,12.52-16.45Z"/><path class="cls-1" d="M30.91,18.98c0-2.31,.44-4.52,1.2-6.57H1.9v58.69H52.56V37.77c-.87,.12-1.76,.19-2.67,.19-10.47,0-18.98-8.52-18.98-18.98Z"/><path class="cls-1" d="M65.47,29.8c-1.22,1.76-2.74,3.29-4.47,4.54l8.77,7.56c.64,.55,1.46,.82,2.31,.76s1.62-.45,2.17-1.09c.55-.64,.82-1.46,.76-2.31-.06-.85-.45-1.62-1.09-2.17l-8.45-7.29Z"/><path class="cls-2" d="M75.21,35.6l-8.69-7.48c1.5-2.71,2.35-5.83,2.35-9.14C68.87,8.52,60.36,0,49.89,0c-7.42,0-13.84,4.29-16.96,10.51H1.05c-.58,0-1.05,.47-1.05,1.05v60.39c0,.58,.47,1.05,1.05,1.05H53.41c.58,0,1.05-.47,1.05-1.05V37.4c1.71-.43,3.33-1.08,4.82-1.93l9.21,7.93c1.04,.9,2.37,1.34,3.74,1.24,1.38-.1,2.63-.73,3.52-1.78,.9-1.04,1.34-2.37,1.24-3.74-.1-1.37-.73-2.62-1.78-3.52Zm-22.65,35.5H1.9V12.41h30.2c-.76,2.05-1.2,4.26-1.2,6.57,0,10.47,8.52,18.98,18.98,18.98,.91,0,1.79-.07,2.67-.19v33.33Zm1.9-35.67c-.62,.17-1.25,.31-1.9,.41-.87,.14-1.76,.23-2.67,.23-9.42,0-17.08-7.66-17.08-17.08,0-2.33,.47-4.55,1.32-6.57,.28-.66,.6-1.29,.95-1.9,2.95-5.13,8.48-8.61,14.81-8.61,9.42,0,17.08,7.66,17.08,17.08,0,7.84-5.31,14.44-12.52,16.45Zm19.79,6.14c-.55,.64-1.32,1.03-2.17,1.09s-1.67-.21-2.31-.76l-8.77-7.56c1.73-1.26,3.25-2.79,4.47-4.54l8.45,7.29c.64,.55,1.03,1.32,1.09,2.17,.06,.85-.21,1.67-.76,2.31Z"/></g></g></svg>