<?xml version="1.0" encoding="UTF-8"?><svg id="Layer_1" xmlns="http://www.w3.org/2000/svg" viewBox="0 0 77 73"><defs><style>.cls-1{fill:#c6e093;}</style></defs><path class="cls-1" d="M12.17,45.82c1.97,0,3.57-1.6,3.57-3.57,0-.4-.07-.8-.2-1.17l11.46-8.15c1.11,.9,2.76,1.02,3.98,.3l3.94,3.8c-.27,.51-.41,1.08-.41,1.66,0,1.97,1.6,3.57,3.57,3.57s3.57-1.6,3.57-3.57c0-.39-.07-.77-.19-1.14l11.87-8.29c.64,.51,1.43,.79,2.24,.79,1.97,0,3.57-1.6,3.57-3.57s-1.6-3.57-3.57-3.57-3.57,1.6-3.57,3.57c0,.39,.07,.77,.19,1.14l-11.86,8.29c-1.14-.91-2.78-1.03-4.01-.32l-3.93-3.8c.27-.51,.41-1.08,.41-1.66,0-1.97-1.6-3.57-3.57-3.57s-3.57,1.6-3.57,3.57c0,.4,.07,.8,.2,1.17l-11.46,8.15c-.64-.51-1.4-.78-2.22-.78-1.97,0-3.57,1.6-3.57,3.57s1.6,3.57,3.56,3.57Zm-1.57-3.57c0-.87,.71-1.58,1.58-1.58s1.58,.71,1.58,1.58-.71,1.58-1.58,1.58-1.58-.71-1.58-1.58Zm25.9-3.56c0-.87,.71-1.58,1.58-1.58,.42,0,.82,.17,1.12,.47,.3,.3,.46,.69,.45,1.11,0,.87-.71,1.58-1.58,1.58s-1.58-.71-1.58-1.58Zm-7.29-10.12c.87,0,1.58,.71,1.58,1.58s-.71,1.58-1.58,1.58-1.58-.71-1.58-1.58,.71-1.58,1.58-1.58Zm24.76-2.08c0-.87,.71-1.58,1.58-1.58s1.58,.71,1.58,1.58-.71,1.58-1.58,1.58-1.58-.71-1.58-1.58Z"/><path class="cls-1" d="M76.99,70.25v-.07c-.02-.06-.03-.1-.05-.14v-.04s-.03-.03-.03-.03c-.01-.03-.03-.06-.06-.1l-.03-.04s-.07-.09-.09-.12c-.04-.04-.08-.08-.17-.14l-2.87-1.66c-.23-.14-.5-.17-.76-.1-.25,.07-.46,.24-.59,.46-.21,.38-.16,.82,.1,1.13h-6.1v-30.21c0-.54-.44-.99-.99-.99h-9.35c-.54,0-.99,.44-.99,.99v30.2h-3.92v-14.04c0-.54-.44-.99-.99-.99h-9.35c-.54,0-.99,.44-.99,.99v14.04h-3.92v-19.27c0-.54-.44-.99-.99-.99h-9.35c-.54,0-.99,.44-.99,.99v19.27h-3.92v-8.68c0-.54-.44-.99-.99-.99H10.28c-.54,0-.99,.44-.99,.99v8.67H3.6V4.55c.31,.26,.79,.3,1.13,.11,.23-.13,.4-.35,.46-.6,.07-.25,.03-.52-.1-.75L3.46,.47l-.04-.07s-.06-.08-.1-.11c-.04-.04-.08-.07-.16-.12,0,0,.02,.01,.03,.03l-.07-.06s-.05-.03-.08-.04l-.03-.03h-.04s-.1-.03-.18-.04c-.11-.02-.26-.01-.31,0h-.07c-.08,.02-.13,.04-.18,.06l-.03,.02s-.06,.03-.09,.05l-.06,.03s-.09,.07-.13,.11c-.04,.04-.08,.09-.12,.16L.13,3.32c-.27,.48-.11,1.07,.36,1.35,.23,.13,.49,.17,.75,.1,.14-.04,.28-.11,.39-.2V70.39c0,.54,.44,.99,.99,.99H72.44c-.09,.11-.16,.24-.2,.38-.07,.25-.03,.52,.1,.75,.18,.3,.51,.49,.85,.49,.18,0,.35-.05,.49-.14l2.85-1.65,.05-.03s.09-.07,.13-.11l.02-.02s.03-.04,.05-.05l.08-.11s.03-.05,.05-.09l.03-.04v-.04s.03-.09,.04-.14v-.06s.02-.1,.02-.15,0-.11-.01-.14Zm-58.35-8.55v7.69h-7.37v-7.69h7.37Zm15.24-10.59v18.28h-7.37v-18.28h7.37Zm15.24,5.23v13.05h-7.37v-13.05h7.37Zm7.87,13.05v-29.21h7.37v29.21h-7.37Z"/><path class="cls-1" d="M36.63,9.63h3.73c.84,0,1.52,.69,1.52,1.53s-.68,1.53-1.52,1.53h-5.7c-.53,0-.96,.43-.96,.96s.43,.97,.96,.97h2.87v1.74c0,.53,.43,.96,.96,.96s.96-.43,.96-.96v-1.73h.9c1.9,0,3.45-1.56,3.45-3.47s-1.55-3.46-3.45-3.46h-3.73c-.84,0-1.52-.69-1.52-1.53s.68-1.53,1.52-1.53h5.7c.53,0,.96-.43,.96-.96s-.43-.96-.96-.96h-2.87V.97c0-.53-.43-.97-.96-.97s-.96,.43-.96,.97v1.74h-.9c-1.9,0-3.45,1.55-3.45,3.46s1.55,3.46,3.45,3.46Z"/></svg>